<svg data-v-423bf9ae="" xmlns="http://www.w3.org/2000/svg" viewBox="0 0 465 90" class="iconLeft"><!----><!----><!----><g data-v-423bf9ae="" id="51a0cab1-bcd8-44cb-a11a-9706cdf15e83" fill="#2C1B19" transform="matrix(5.964215028353327,0,0,5.964215028353327,103.26042461756671,-8.021870328915305)"><path d="M1.13 4.05L1.13 13.73L2.56 13.73L2.56 7.35L5.46 13.73L6.09 13.73L8.99 7.39L8.99 13.73L10.42 13.73L10.42 4.05L9.00 4.05L5.81 11.23L2.62 4.05ZM15.34 6.15C13.51 6.15 12.21 7.49 12.21 10.02C12.21 12.57 13.50 13.92 15.34 13.92C17.16 13.92 18.47 12.57 18.47 10.02C18.47 7.49 17.15 6.15 15.34 6.15ZM15.34 7.38C16.44 7.38 17.21 8.29 17.21 10.04C17.21 11.77 16.44 12.68 15.34 12.68C14.22 12.68 13.48 11.77 13.48 10.04C13.48 8.29 14.24 7.38 15.34 7.38ZM25.02 6.59C24.77 6.36 24.37 6.15 23.72 6.15C22.82 6.15 22.11 6.52 21.59 7.22L21.59 6.33L20.33 6.33L20.33 13.73L21.66 13.73L21.66 8.74C22.08 7.70 22.71 7.41 23.46 7.41C23.91 7.41 24.26 7.50 24.53 7.77ZM32.10 10.49C32.12 10.33 32.13 10.18 32.13 10.00C32.13 7.52 30.81 6.15 28.99 6.15C27.17 6.15 25.87 7.52 25.87 10.00C25.87 12.60 27.31 13.92 29.08 13.92C30.41 13.92 31.23 13.17 31.64 12.61L30.76 11.84C30.42 12.33 29.86 12.71 29.13 12.71C28.15 12.71 27.27 12.03 27.12 10.49ZM29.01 7.35C30.00 7.35 30.73 8.08 30.88 9.49L27.12 9.49C27.26 8.12 27.99 7.35 29.01 7.35ZM34.06 4.05L34.06 13.73L35.49 13.73L35.49 7.35L38.39 13.73L39.02 13.73L41.92 7.39L41.92 13.73L43.34 13.73L43.34 4.05L41.93 4.05L38.74 11.23L35.55 4.05ZM48.78 3.86C46.75 3.86 45.28 5.60 45.28 8.90C45.28 12.19 46.75 13.92 48.78 13.92C50.83 13.92 52.30 12.19 52.30 8.90C52.30 5.60 50.83 3.86 48.78 3.86ZM48.78 5.12C50.13 5.12 51.04 6.41 51.04 8.90C51.04 11.40 50.13 12.66 48.78 12.66C47.43 12.66 46.54 11.40 46.54 8.90C46.54 6.41 47.43 5.12 48.78 5.12ZM54.95 6.47C55.54 5.64 56.41 5.12 57.43 5.12C58.41 5.12 59.23 5.61 59.23 6.72C59.23 7.39 58.91 7.81 58.24 8.20C57.46 8.67 56.07 9.09 55.17 9.81C54.22 10.63 53.93 11.75 53.93 13.29L53.93 13.73L60.52 13.73L60.52 12.46L55.43 12.46C55.43 11.65 55.59 11.02 56.45 10.40C57.33 9.77 58.58 9.41 59.42 8.83C60.17 8.30 60.55 7.63 60.55 6.66C60.55 4.77 59.09 3.86 57.39 3.86C56.01 3.86 54.80 4.45 54.05 5.57Z"></path></g><defs data-v-423bf9ae=""><linearGradient data-v-423bf9ae="" gradientTransform="rotate(25)" id="07eeff77-a9aa-40bb-a25f-189fe1e08abf" x1="0%" y1="0%" x2="100%" y2="0%"><stop data-v-423bf9ae="" offset="0%" style="stop-color: rgb(135, 84, 78); stop-opacity: 1;"></stop><stop data-v-423bf9ae="" offset="100%" style="stop-color: rgb(135, 84, 78); stop-opacity: 1;"></stop></linearGradient></defs><g data-v-423bf9ae="" id="9218bc30-c89d-42dd-b951-7a54beafab43" transform="matrix(2.8125,0,0,2.8125,0,0)" stroke="none" fill="url(#07eeff77-a9aa-40bb-a25f-189fe1e08abf)"><path d="M11.579 32H32L21.789 14.314z"></path><circle cx="8.683" cy="8.683" r="8.683"></circle></g><!----></svg>